<?xml version="1.0" encoding="UTF-8"?>
<svg xmlns="http://www.w3.org/2000/svg" width="638" height="490" viewBox="0 0 638 490">
  <path d="M 189 204 C 201 220 213 236 227 254 L 467 472 Q 472 477 465 479 L 373 479 L 146 294 Q 140 289 146 283 Z" fill="#C89A45"/>
  <path d="M 497 129 L 621 129 Q 626 129 626 134 Q 626 138 621 138 C 603 139 590 144 582 154 C 574 165 571 181 571 204 L 571 404 C 571 428 574 445 583 456 C 592 466 606 471 624 472 Q 628 472 628 476 Q 628 480 624 480 L 477 480 Q 473 480 473 476 Q 473 472 477 472 C 495 471 508 466 516 456 C 524 445 527 428 527 404 L 527 171 L 384 370 Q 380 376 373 372 L 358 363 Z" fill="#C89A45"/>
  <path d="M 15 10 L 205 10 Q 210 10 210 14 Q 210 18 205 18 C 185 19 171 24 162 34 C 153 44 150 61 150 84 L 150 232 L 347 52 C 363 47 372 36 371 29 C 370 22 358 18 338 17 L 308 17 Q 304 17 304 13 Q 304 10 308 10 L 443 10 Q 448 10 448 14 Q 448 18 443 18 C 427 20 413 26 398 39 L 151 284 L 151 405 C 151 429 154 445 163 456 C 172 466 186 471 205 472 Q 210 472 210 476 Q 210 480 205 480 L 15 480 Q 10 480 10 476 Q 10 472 15 472 C 34 471 48 466 57 456 C 66 445 69 429 69 405 L 69 84 C 69 61 66 44 57 34 C 48 24 34 19 15 18 Q 10 18 10 14 Q 10 10 15 10 Z" fill="#EFE8D6"/>
</svg>
