<svg xmlns="http://www.w3.org/2000/svg" viewBox="0 0 256 256">
  <defs>
    <linearGradient id="base" x1="0" x2="1" y1="0" y2="0">
      <stop offset="0" stop-color="#26170f"/>
      <stop offset="0.42" stop-color="#4a2f1f"/>
      <stop offset="1" stop-color="#2c1a11"/>
    </linearGradient>
    <filter id="grain" x="-10%" y="-10%" width="120%" height="120%">
      <feTurbulence type="fractalNoise" baseFrequency="0.018 0.16" numOctaves="3" seed="12"/>
      <feColorMatrix type="saturate" values="0"/>
      <feBlend mode="multiply" in2="SourceGraphic"/>
    </filter>
  </defs>
  <rect width="256" height="256" fill="url(#base)"/>
  <g filter="url(#grain)" opacity="0.46">
    <path d="M12 0c20 38 14 70 36 106 19 32 18 68-6 150" fill="none" stroke="#7a4f32" stroke-width="7"/>
    <path d="M92 0c-12 48-11 92 12 132 18 31 15 72-8 124" fill="none" stroke="#1b100b" stroke-width="5"/>
    <path d="M154 0c16 34 19 76 2 112-18 38-8 82 18 144" fill="none" stroke="#6b442c" stroke-width="6"/>
    <path d="M220 0c-20 44-18 83 8 119 20 28 16 68-14 137" fill="none" stroke="#120b08" stroke-width="5"/>
  </g>
  <g opacity="0.22" stroke="#d59b5c" stroke-width="1">
    <path d="M0 48h256M0 128h256M0 208h256"/>
  </g>
</svg>
